<svg width="1600" height="900" viewBox="0 0 1600 900" xmlns="http://www.w3.org/2000/svg" role="img" aria-labelledby="constructionTitle constructionDesc">
  <title id="constructionTitle">New Style Construction architectural branding mockup</title>
  <desc id="constructionDesc">Modern construction branding with building mockups and site signboard visuals.</desc>
  <defs>
    <linearGradient id="ns-bg" x1="0" y1="0" x2="1" y2="1">
      <stop offset="0%" stop-color="#07101f" />
      <stop offset="100%" stop-color="#16486d" />
    </linearGradient>
  </defs>
  <rect width="1600" height="900" fill="url(#ns-bg)" />
  <rect x="110" y="180" width="480" height="560" rx="42" fill="#ffffff" opacity="0.12" />
  <rect x="640" y="220" width="400" height="520" rx="32" fill="#ffffff" opacity="0.16" />
  <rect x="520" y="300" width="220" height="420" rx="28" fill="#ffffff" opacity="0.18" />
  <rect x="200" y="240" width="180" height="120" rx="20" fill="#5db2d8" />
  <rect x="220" y="280" width="140" height="20" rx="10" fill="#ffffff" opacity="0.9" />
  <rect x="220" y="320" width="90" height="18" rx="9" fill="#ffffff" opacity="0.75" />
  <rect x="740" y="270" width="240" height="28" rx="14" fill="#ffffff" opacity="0.92" />
  <rect x="740" y="320" width="200" height="18" rx="9" fill="#ffffff" opacity="0.75" />
  <path d="M1340 340h120v260h-120z" fill="#ff9e45" opacity="0.88" rx="26" />
  <path d="M1280 540l80-210 40 120 10 90z" fill="#f5e083" opacity="0.95" />
  <text x="180" y="740" font-family="Inter, system-ui, sans-serif" font-size="72" font-weight="800" fill="#ffffff">New Style</text>
  <text x="180" y="820" font-family="Inter, system-ui, sans-serif" font-size="32" fill="#c0d9ff">Construction branding & site identity</text>
  <rect x="380" y="280" width="240" height="34" rx="16" fill="#ffffff" opacity="0.8" />
  <path d="M420 420h160" stroke="#ffffff" stroke-width="18" stroke-linecap="round" opacity="0.8" />
  <path d="M420 470h90" stroke="#ffffff" stroke-width="18" stroke-linecap="round" opacity="0.8" />
</svg>