<svg width="1600" height="900" viewBox="0 0 1600 900" xmlns="http://www.w3.org/2000/svg" role="img" aria-labelledby="nyombiTitle nyombiDesc">
  <title id="nyombiTitle">Nyombi Savo automotive parts branding mockup</title>
  <desc id="nyombiDesc">Professional Japanese new and used spare parts imagery with shop display and signage.</desc>
  <defs>
    <linearGradient id="ns-bg" x1="0" y1="0" x2="1" y2="1">
      <stop offset="0%" stop-color="#0f1724" />
      <stop offset="100%" stop-color="#1e3a5f" />
    </linearGradient>
  </defs>
  <rect width="1600" height="900" fill="url(#ns-bg)" />
  <rect x="120" y="160" width="500" height="560" rx="46" fill="#ffffff" opacity="0.16" />
  <rect x="160" y="220" width="420" height="120" rx="28" fill="#fbf2d9" />
  <text x="190" y="290" font-family="Inter, system-ui, sans-serif" font-size="56" font-weight="800" fill="#0f1724">Nyombi</text>
  <text x="190" y="350" font-family="Inter, system-ui, sans-serif" font-size="42" fill="#0f1724">Savo</text>
  <rect x="160" y="360" width="420" height="20" rx="10" fill="#0f1724" opacity="0.12" />
  <g opacity="0.9">
    <rect x="230" y="430" width="340" height="90" rx="18" fill="#1e3a5f" />
    <circle cx="310" cy="505" r="20" fill="#fbf2d9" />
    <circle cx="400" cy="505" r="20" fill="#fbf2d9" />
    <circle cx="490" cy="505" r="20" fill="#fbf2d9" />
  </g>
  <rect x="760" y="260" width="700" height="340" rx="40" fill="#ffffff" opacity="0.12" />
  <rect x="820" y="320" width="540" height="220" rx="38" fill="#23355d" opacity="0.9" />
  <text x="860" y="390" font-family="Inter, system-ui, sans-serif" font-size="42" font-weight="700" fill="#f8f2d9">Precision parts</text>
  <text x="860" y="450" font-family="Inter, system-ui, sans-serif" font-size="32" fill="#cbd7f5">Japanese new and used systems</text>
  <path d="M880 540l70-130 110 30 40 76" stroke="#f8f2d9" stroke-width="20" fill="none" stroke-linecap="round" />
  <path d="M1250 520h110" stroke="#f8f2d9" stroke-width="18" stroke-linecap="round" opacity="0.85" />
</svg>