<svg width="1600" height="900" viewBox="0 0 1600 900" xmlns="http://www.w3.org/2000/svg" role="img" aria-labelledby="kaanaTitle kaanaDesc">
  <title id="kaanaTitle">Kaana Genius children's book branding mockup</title>
  <desc id="kaanaDesc">A colorful book cover layout and educational branding panel.</desc>
  <defs>
    <linearGradient id="kg-bg" x1="0" y1="0" x2="1" y2="1">
      <stop offset="0%" stop-color="#002f4d" />
      <stop offset="100%" stop-color="#007a8f" />
    </linearGradient>
    <linearGradient id="kg-panel" x1="0" y1="0" x2="1" y2="1">
      <stop offset="0%" stop-color="#ffd57e" />
      <stop offset="100%" stop-color="#ff9f6d" />
    </linearGradient>
  </defs>
  <rect width="1600" height="900" fill="url(#kg-bg)" />
  <circle cx="1300" cy="220" r="200" fill="rgba(255,255,255,0.12)" />
  <rect x="140" y="140" width="440" height="620" rx="34" fill="url(#kg-panel)" stroke="#ffffff" stroke-opacity="0.14" stroke-width="8" />
  <rect x="190" y="220" width="340" height="120" rx="24" fill="#fff" />
  <text x="210" y="290" font-family="Inter, system-ui, sans-serif" font-size="58" font-weight="800" fill="#002f4d">Kaana</text>
  <text x="210" y="360" font-family="Inter, system-ui, sans-serif" font-size="42" font-weight="700" fill="#002f4d">Genius</text>
  <rect x="180" y="420" width="360" height="160" rx="20" fill="#fff" />
  <text x="210" y="490" font-family="Inter, system-ui, sans-serif" font-size="32" fill="#002f4d">Childrens books</text>
  <text x="210" y="540" font-family="Inter, system-ui, sans-serif" font-size="32" fill="#002f4d">and learning kits</text>
  <path d="M1100 520c0 70-57 127-127 127h-50" stroke="#ffd57e" stroke-width="28" stroke-linecap="round" fill="none" />
  <circle cx="1120" cy="350" r="75" fill="rgba(255,255,255,0.18)" />
  <circle cx="1220" cy="420" r="42" fill="#c4f5ff" />
  <rect x="840" y="260" width="420" height="520" rx="32" fill="rgba(255,255,255,0.12)" />
  <rect x="870" y="300" width="360" height="72" rx="18" fill="#ffffff" opacity="0.88" />
  <text x="900" y="350" font-family="Inter, system-ui, sans-serif" font-size="27" font-weight="700" fill="#002f4d">Book series identity</text>
  <rect x="870" y="390" width="360" height="28" rx="14" fill="#ffffff" opacity="0.7" />
  <rect x="870" y="440" width="360" height="28" rx="14" fill="#ffffff" opacity="0.7" />
  <rect x="870" y="490" width="360" height="28" rx="14" fill="#ffffff" opacity="0.7" />
  <rect x="870" y="540" width="110" height="110" rx="22" fill="#ffd57e" />
  <text x="890" y="620" font-family="Inter, system-ui, sans-serif" font-size="34" font-weight="800" fill="#002f4d">ABC</text>
</svg>